<?xml version="1.0" encoding="utf-8" ?><svg xmlns="http://www.w3.org/2000/svg" xmlns:xlink="http://www.w3.org/1999/xlink" width="834" height="254" viewBox="95 385 834 254"><path fill="#888787" d="M303.408 396.815C314.176 392.307 323.921 394.506 335.269 395.729C339.112 397.611 341.499 398.689 344.646 401.713C345.598 405.079 347.261 410.354 347.341 413.676C347.663 427.013 347.423 440.531 347.312 453.886C347.263 459.768 348.107 466.306 347.912 471.829C347.536 480.466 347.013 489.068 347.041 497.719C347.163 535.565 348.742 573.394 347.352 611.217C347.146 616.811 345.19 620.868 339.302 622.041C328.737 624.146 317.483 623.676 306.757 623.179C305.029 623.094 298.867 622.413 297.948 622.5C291.684 617.409 292.641 602.616 294.227 595.445C295.544 590.446 293.732 575.256 293.263 569.309C291.571 547.877 293.634 526.542 293.032 505.23C291.56 506.944 284.901 520.683 283.475 523.503L259.875 570.219C256.635 576.76 246.602 597.889 242.954 602.369C238.556 603.88 234.225 605.287 229.779 606.654C218.281 610.187 215.41 596.972 209.491 589.886L207.676 587.893C214.622 583.472 222.849 575.546 229.557 570.457C232.178 568.467 235.048 565.672 237.926 564.205C237.01 561.661 237.069 559.608 236.284 557.111L236.001 558.084C233.972 556.039 228.246 530.846 226.705 525.832L227.377 523.506C228.687 520.433 230.497 516.547 231.249 513.381C234.395 507.582 235.913 504.888 237.908 498.599C239.913 493.435 250.274 472.038 253.13 468.35C265.04 446.322 272.174 421.286 285.939 400.459C288.311 396.869 299.238 396.977 303.408 396.815Z"/><path fill="#737272" d="M325.614 407.649C326.213 410.421 325.868 412.446 325.26 415.215C324.877 418.845 324.125 426.635 323.408 429.927C322.193 428.85 315.863 428.349 313.533 427.949C313.4 424.454 312.131 419.301 311.897 414.666L312.601 412.048C314.811 410.256 321.771 409.304 325.614 407.649Z"/><path fill="#3F4339" d="M335.269 395.729C339.112 397.611 341.499 398.689 344.646 401.713C345.598 405.079 347.261 410.354 347.341 413.676C347.663 427.013 347.423 440.531 347.312 453.886C347.263 459.768 348.107 466.306 347.912 471.829C347.536 480.466 347.013 489.068 347.041 497.719C347.163 535.565 348.742 573.394 347.352 611.217C347.146 616.811 345.19 620.868 339.302 622.041C328.737 624.146 317.483 623.676 306.757 623.179C305.029 623.094 298.867 622.413 297.948 622.5C291.684 617.409 292.641 602.616 294.227 595.445C295.544 590.446 293.732 575.256 293.263 569.309C291.571 547.877 293.634 526.542 293.032 505.23C293.827 503.849 293.357 504.48 294.92 503.568L295.585 504.169C307.918 501.2 306.36 499.3 316.266 494.215L316.76 493.967C319.061 492.243 323.058 446.613 323.658 439.885C323.935 437.73 323.534 432.275 323.408 429.927C324.125 426.635 324.877 418.845 325.26 415.215L325.522 416.329C333.932 415.861 334.842 409.251 337.147 402.319C336.115 399.565 335.789 398.696 335.269 395.729Z"/><path fill="#496331" d="M295.585 504.169C307.918 501.2 306.36 499.3 316.266 494.215L316.76 493.967C317.438 498.284 314.413 526.192 313.35 531.331C318.41 535.886 326.073 539.195 332.709 540.308C332.889 549.596 322.622 567.535 321.016 577.826C319.965 584.566 315.476 593.771 311.312 599.175C310.641 600.413 309.919 601.668 309.364 602.957C305.347 601.691 300.441 601.67 296.192 601.5C295.741 599.231 295.613 597.208 294.227 595.445C295.544 590.446 293.732 575.256 293.263 569.309C291.571 547.877 293.634 526.542 293.032 505.23C293.827 503.849 293.357 504.48 294.92 503.568L295.585 504.169Z"/><path fill="#737272" d="M313.35 531.331C318.41 535.886 326.073 539.195 332.709 540.308C332.889 549.596 322.622 567.535 321.016 577.826C319.965 584.566 315.476 593.771 311.312 599.175C310.146 596.99 308.626 593.098 307.607 590.7C308.981 587.211 311.006 573.412 311.523 569.253C308.43 569.978 306.82 570.113 303.672 570.396L300.739 566.92L299.777 565.945L299.547 565.55C299.324 557.348 309.691 539.794 313.35 531.331Z"/><path fill="#3F4339" d="M299.777 565.945C300.938 561.453 313.345 553.774 316.804 559.394C316.943 563.112 314.823 565.731 312.323 568.424C312.061 568.705 311.794 568.981 311.523 569.253C308.43 569.978 306.82 570.113 303.672 570.396L300.739 566.92L299.777 565.945Z"/><path fill="#888787" d="M295.585 504.169C307.918 501.2 306.36 499.3 316.266 494.215L316.76 493.967C317.438 498.284 314.413 526.192 313.35 531.331C309.691 539.794 299.324 557.348 299.547 565.55L299.777 565.945L300.739 566.92C299.934 568.022 299.4 568.917 298.306 569.74C293.278 561.733 299.673 549.513 303.312 541.904C299.846 527.805 295.476 519.197 295.585 504.169Z"/><path fill="#888787" d="M303.672 570.396C306.82 570.113 308.43 569.978 311.523 569.253C311.006 573.412 308.981 587.211 307.607 590.7C302.408 581.499 309.546 575.862 308.271 571.925C306.513 571.214 306.247 571.629 304.029 571.957L303.672 570.396Z"/><path fill="#949490" d="M300.739 566.92L303.672 570.396L304.029 571.957C302.831 572.738 302.19 573.374 300.791 573.284C299.398 572.576 299.025 571.227 298.306 569.74C299.4 568.917 299.934 568.022 300.739 566.92Z"/><path fill="#616161" d="M323.408 429.927C324.125 426.635 324.877 418.845 325.26 415.215L325.522 416.329C327.804 419.535 330.858 423.062 332.87 426.078C331.628 431.315 330.317 434.825 327.996 439.71C331.079 448.823 334.977 458.176 334.431 467.855L334.085 468.442C328.643 477.493 326.664 475.431 324.241 486.97C326.1 492.284 333.014 510.907 333.308 515.41C333.859 523.856 328.202 528.109 332.709 540.308C326.073 539.195 318.41 535.886 313.35 531.331C314.413 526.192 317.438 498.284 316.76 493.967C319.061 492.243 323.058 446.613 323.658 439.885C323.935 437.73 323.534 432.275 323.408 429.927Z"/><path fill="#888787" d="M294.227 595.445C295.613 597.208 295.741 599.231 296.192 601.5C300.441 601.67 305.347 601.691 309.364 602.957C306.098 609.15 300.354 616.855 297.948 622.5C291.684 617.409 292.641 602.616 294.227 595.445Z"/><path fill="#4D4D4D" d="M293.873 493.041C294.163 496.65 294.466 499.978 294.92 503.568C293.357 504.48 293.827 503.849 293.032 505.23C291.56 506.944 284.901 520.683 283.475 523.503L259.875 570.219C256.635 576.76 246.602 597.889 242.954 602.369C238.556 603.88 234.225 605.287 229.779 606.654C218.281 610.187 215.41 596.972 209.491 589.886L207.676 587.893C214.622 583.472 222.849 575.546 229.557 570.457C232.178 568.467 235.048 565.672 237.926 564.205C244.997 561.093 252.957 556.116 260.837 552.558C261.386 551.358 261.837 550.172 262.317 548.946C268.733 531.84 264.132 535.119 277.925 521.454C280.373 519.029 291.334 497.568 293.873 493.041Z"/><path fill="#393939" d="M293.873 493.041C294.163 496.65 294.466 499.978 294.92 503.568C293.357 504.48 293.827 503.849 293.032 505.23C291.56 506.944 284.901 520.683 283.475 523.503L259.875 570.219C256.635 576.76 246.602 597.889 242.954 602.369C238.556 603.88 234.225 605.287 229.779 606.654C218.281 610.187 215.41 596.972 209.491 589.886C216.126 588.54 233.961 597.382 240.524 600.316C248.509 584.289 253.866 569.061 260.837 552.558C261.386 551.358 261.837 550.172 262.317 548.946C268.733 531.84 264.132 535.119 277.925 521.454C280.373 519.029 291.334 497.568 293.873 493.041Z"/><path fill="#616161" d="M263.41 486.536C263.805 495.669 259.376 544.916 262.126 548.863L262.317 548.946C261.837 550.172 261.386 551.358 260.837 552.558C252.957 556.116 244.997 561.093 237.926 564.205C237.01 561.661 237.069 559.608 236.284 557.111C235.023 546.58 233.735 536.1 233.477 525.486C245.762 504.422 242.281 500.778 263.41 486.536Z"/><path fill="#949490" d="M303.408 396.815C314.176 392.307 323.921 394.506 335.269 395.729C335.789 398.696 336.115 399.565 337.147 402.319C334.842 409.251 333.932 415.861 325.522 416.329L325.26 415.215C325.868 412.446 326.213 410.421 325.614 407.649C321.771 409.304 314.811 410.256 312.601 412.048C308.864 411.911 302.041 411.118 298.257 410.488C292.875 417.619 282.157 432.591 279.219 440.595L278.437 440.385C269.88 448.875 263.504 464.572 253.13 468.35C265.04 446.322 272.174 421.286 285.939 400.459C288.311 396.869 299.238 396.977 303.408 396.815Z"/><path fill="#496331" d="M303.408 396.815C314.176 392.307 323.921 394.506 335.269 395.729C335.789 398.696 336.115 399.565 337.147 402.319C334.842 409.251 333.932 415.861 325.522 416.329L325.26 415.215C325.868 412.446 326.213 410.421 325.614 407.649C319.283 402.269 311.333 403.732 303.795 404.893L300.02 400.585C301.511 399.218 302.453 398.558 303.408 396.815Z"/><path fill="#ACABAB" d="M298.257 410.488C302.041 411.118 308.864 411.911 312.601 412.048L311.897 414.666C305.634 417.638 298.26 419.688 292.989 424.325C282.901 433.198 275.744 474.176 263.41 486.536C242.281 500.778 245.762 504.422 233.477 525.486C233.735 536.1 235.023 546.58 236.284 557.111L236.001 558.084C233.972 556.039 228.246 530.846 226.705 525.832L227.377 523.506C228.687 520.433 230.497 516.547 231.249 513.381C234.395 507.582 235.913 504.888 237.908 498.599C239.913 493.435 250.274 472.038 253.13 468.35C263.504 464.572 269.88 448.875 278.437 440.385L279.219 440.595C282.157 432.591 292.875 417.619 298.257 410.488Z"/><path fill="#496331" d="M253.13 468.35C263.504 464.572 269.88 448.875 278.437 440.385L279.219 440.595C274.779 456.223 269.05 464.978 260.67 478.525C253.421 490.244 251.863 493.744 237.908 498.599C239.913 493.435 250.274 472.038 253.13 468.35Z"/><path fill="#949490" d="M295.287 487.87L295.667 488.149C297.715 486.256 300.498 480.557 302.024 478.072C307.136 469.749 317.997 445.923 323.658 439.885C323.058 446.613 319.061 492.243 316.76 493.967L316.266 494.215C306.36 499.3 307.918 501.2 295.585 504.169L294.92 503.568C294.466 499.978 294.163 496.65 293.873 493.041C294.307 491.114 294.685 489.752 295.287 487.87Z"/><path fill="#ACABAB" d="M313.533 427.949C315.863 428.349 322.193 428.85 323.408 429.927C323.534 432.275 323.935 437.73 323.658 439.885C317.997 445.923 307.136 469.749 302.024 478.072C300.498 480.557 297.715 486.256 295.667 488.149L295.287 487.87C297.42 477.678 302.207 463.734 305.055 453.498C306.675 447.675 311.193 432.864 313.533 427.949Z"/><path fill="#617F33" d="M887.785 500.483L888.701 500.82C893.926 502.72 894.553 501.549 898.47 506.553C904.841 501.241 908.392 505.068 910.38 511.585C913.677 519.813 919.827 529.564 922.463 537.409C921.654 542.219 919.241 547.489 918.819 551.417C918.197 557.215 919.444 571.479 916.081 576.401C910.678 584.309 907.153 583.292 907.878 593.503C908 595.221 896.607 603.251 894.136 608.677C887.048 613.399 872.797 620.077 864.729 623.802C863.068 624.569 855.213 624.067 852.687 624.581C847.536 625.628 841.954 627.723 836.889 628.683C833.548 629.171 828.278 627.574 824.734 627.161C809.599 625.397 785.926 620.281 772.381 612.887C761.6 610.135 757.027 607.236 753.998 596.499C754.952 593.786 755.217 591.066 755.877 588.566C757.1 583.93 764.116 571.778 767.906 569.595C768.733 566.231 768.982 564.813 770.736 561.831C782.036 552.732 784.062 549.023 797.169 560.638C797.674 561.086 798.131 562.928 798.299 563.559C805.968 568.604 817.842 574.173 827.052 574.083C824.213 575.119 819.69 582.911 817.641 585.978L818.402 587.637L834.379 583.239C835.702 582.031 842.434 579.823 844.515 579.084C842.626 578.733 838.655 577.308 836.975 576.319C842.22 573.48 842.685 572.075 845.241 566.803C851.556 563.117 853.799 561.884 853.326 554.084C852.975 552.773 852.343 551.787 851.692 550.597L852.669 547.484L853.268 544.682C855.079 541.075 856.773 536.849 858.372 533.102C861.409 527.063 863.024 521.423 867.523 516.25C868.666 522.386 869.933 528.498 871.325 534.582C873.378 533.19 875.44 531.812 877.511 530.448C876.241 526.586 878.347 517.171 879.216 513.063C880.469 507.138 883.289 504.17 887.785 500.483Z"/><defs><linearGradient id="gradient_0" gradientUnits="userSpaceOnUse" x1="902.07471" y1="598.61322" x2="845.89532" y2="541.36572"><stop offset="0" stop-color="#152F21"/><stop offset="1" stop-color="#313E23"/></linearGradient></defs><path fill="url(#gradient_0)" d="M887.785 500.483L888.701 500.82C893.926 502.72 894.553 501.549 898.47 506.553C904.841 501.241 908.392 505.068 910.38 511.585C913.677 519.813 919.827 529.564 922.463 537.409C921.654 542.219 919.241 547.489 918.819 551.417C918.197 557.215 919.444 571.479 916.081 576.401C910.678 584.309 907.153 583.292 907.878 593.503C908 595.221 896.607 603.251 894.136 608.677C887.048 613.399 872.797 620.077 864.729 623.802C863.068 624.569 855.213 624.067 852.687 624.581C847.536 625.628 841.954 627.723 836.889 628.683C837.189 623.831 851.075 613.675 854.858 610.608C855.556 610.376 857.46 609.373 858.219 608.999C861.057 605.356 866.076 600.751 869.442 596.883L872.114 594.877C869.889 590.616 867.584 579.816 866.617 574.995C869.467 568.663 872.414 563.097 875.055 556.603C878.505 548.121 882.761 532.804 887.755 525.524L887.655 524.807C885.813 525.002 879.552 529.197 877.511 530.448C876.241 526.586 878.347 517.171 879.216 513.063C880.469 507.138 883.289 504.17 887.785 500.483Z"/><path fill="#496331" d="M887.755 525.524C887.249 533.984 885.937 544.025 884.472 552.429C887.667 554.346 890.67 556.161 893.772 558.222C893.732 562.448 894.298 566.766 890.997 569.899C885.82 574.375 880.907 579.146 876.281 584.188L878.182 591.367C876.501 592.367 873.794 594.097 872.114 594.877C869.889 590.616 867.584 579.816 866.617 574.995C869.467 568.663 872.414 563.097 875.055 556.603C878.505 548.121 882.761 532.804 887.755 525.524Z"/><path fill="#324128" d="M876.281 584.188C880.907 579.146 885.82 574.375 890.997 569.899C890.935 578.685 891.248 587.161 891.562 595.93C883.113 601.659 868.231 607.11 858.219 608.999C861.057 605.356 866.076 600.751 869.442 596.883L872.114 594.877C873.794 594.097 876.501 592.367 878.182 591.367L876.281 584.188Z"/><path fill="#69745F" d="M898.47 506.553C904.841 501.241 908.392 505.068 910.38 511.585C907.19 510.514 901.303 508.119 898.47 506.553Z"/><path fill="#617F33" d="M770.736 561.831C782.036 552.732 784.062 549.023 797.169 560.638C797.674 561.086 798.131 562.928 798.299 563.559C805.968 568.604 817.842 574.173 827.052 574.083C824.213 575.119 819.69 582.911 817.641 585.978L818.402 587.637C816.512 591.713 815.338 596.799 813.827 601.08C808.299 602.809 791.301 607.837 786.739 610.323C782.198 610.909 776.643 611.444 772.381 612.887C761.6 610.135 757.027 607.236 753.998 596.499C754.952 593.786 755.217 591.066 755.877 588.566C757.1 583.93 764.116 571.778 767.906 569.595C768.733 566.231 768.982 564.813 770.736 561.831Z"/><path fill="#496331" d="M770.736 561.831C772.204 563.733 772.49 566.811 772.933 569.216C774.1 575.544 775.533 580.073 778.818 585.626C772.043 588.509 762.425 592.946 755.395 594.459L753.05 594.981C762.295 597.198 771.366 598.468 780.621 600.236C783.209 603.644 785.18 606.269 786.739 610.323C782.198 610.909 776.643 611.444 772.381 612.887C761.6 610.135 757.027 607.236 753.998 596.499C754.952 593.786 755.217 591.066 755.877 588.566C757.1 583.93 764.116 571.778 767.906 569.595C768.733 566.231 768.982 564.813 770.736 561.831Z"/><path fill="#3F4339" d="M798.299 563.559C805.968 568.604 817.842 574.173 827.052 574.083C824.213 575.119 819.69 582.911 817.641 585.978C812.465 580.529 810.134 576.977 803.595 573.172C798.163 576.771 796.674 577.586 790.361 579.251C793.628 576.052 796.389 573.254 800.022 570.439C798.417 567.519 797.807 566.742 798.299 563.559Z"/><path fill="#393939" d="M818.402 587.637L834.379 583.239C829.697 587.859 823.385 589.462 823.829 597.462C823.99 600.352 823.448 604.558 824.663 607.157L825.486 607.623C835.836 610.805 846.626 607.043 854.858 610.608C851.075 613.675 837.189 623.831 836.889 628.683C833.548 629.171 828.278 627.574 824.734 627.161C809.599 625.397 785.926 620.281 772.381 612.887C776.643 611.444 782.198 610.909 786.739 610.323C791.301 607.837 808.299 602.809 813.827 601.08C815.338 596.799 816.512 591.713 818.402 587.637Z"/><path fill="#2A5127" d="M840.069 597.098C849.421 596.748 859.833 597.106 869.442 596.883C866.076 600.751 861.057 605.356 858.219 608.999C857.46 609.373 855.556 610.376 854.858 610.608C846.626 607.043 835.836 610.805 825.486 607.623C829.628 604.934 835.523 600.233 840.069 597.098Z"/><path fill="#82A445" d="M853.326 554.084L853.973 553.901C857.35 556.411 860.541 558.9 862.933 562.428C860.092 568.957 856.093 575.011 851.991 580.824C849.51 580.291 846.943 579.795 844.515 579.084C842.626 578.733 838.655 577.308 836.975 576.319C842.22 573.48 842.685 572.075 845.241 566.803C851.556 563.117 853.799 561.884 853.326 554.084Z"/><path fill="#957242" d="M858.372 533.102C861.409 527.063 863.024 521.423 867.523 516.25C868.666 522.386 869.933 528.498 871.325 534.582C868.166 537.017 855.99 546.88 852.669 547.484L853.268 544.682C855.079 541.075 856.773 536.849 858.372 533.102Z"/><path fill="#496331" d="M833.824 394.01C838.893 391.26 847.389 386.728 853.317 388.186C857.247 389.152 858.055 391.533 859.997 394.858C870.105 397.259 883.146 399.661 890.731 407.23C893.29 409.784 895.032 413.386 897.923 416.292C903.383 418.935 906.925 421.055 907.792 427.437C907.481 428.817 906.863 431.952 905.973 433.036C897.198 443.728 898.446 454.612 885.613 462.871C884.994 463.266 884.365 463.646 883.728 464.012C874.046 463.972 870.651 459.926 861.614 456.642C856.836 454.906 852.646 454.14 847.651 453.318L843.908 449.624C835.483 449.242 813.161 449.591 813.146 461.974C813.137 469.249 819.116 474.999 825.165 478.175L824.266 478.515C817.178 481.162 805.962 483.201 799.987 487.698C799.999 489.166 800.232 489.467 800.76 490.831L801.164 491.029L802.966 493.293C806.271 494.031 816.639 494.785 817.397 495.164C812.936 499.378 808.567 504.333 804.452 508.163C802.072 509.923 799.9 511.25 801.144 514.528L801.755 514.786C802.603 519.164 805.924 526.604 806.116 528.389C799.067 526.077 793.693 521.779 787.233 518.464C783.701 516.827 779.569 515.786 776.159 513.919C771.774 511.518 768.374 505.134 766.106 500.785C763.612 496.003 759.942 490.055 758.45 485.016L758.099 482.201C751.915 470.881 753.057 466.082 754.647 453.688C756.277 440.985 760.139 429.487 768.695 419.735C772.516 415.379 773.008 414.3 774.302 408.804C780.724 404.091 781.956 404.277 790.013 404.23C795.585 400.494 813.734 394.067 820.724 391.232C826.467 388.903 829.112 391.383 833.824 394.01Z"/><defs><linearGradient id="gradient_1" gradientUnits="userSpaceOnUse" x1="835.96631" y1="414.72534" x2="858.64594" y2="472.29184"><stop offset="0" stop-color="#303A26"/><stop offset="1" stop-color="#39333C"/></linearGradient></defs><path fill="url(#gradient_1)" d="M867.887 405.598C876.805 408.981 879.447 410.848 886.308 417.659C890.176 417.169 894.047 416.713 897.923 416.292C903.383 418.935 906.925 421.055 907.792 427.437C907.481 428.817 906.863 431.952 905.973 433.036C897.198 443.728 898.446 454.612 885.613 462.871C884.994 463.266 884.365 463.646 883.728 464.012C874.046 463.972 870.651 459.926 861.614 456.642C856.836 454.906 852.646 454.14 847.651 453.318L843.908 449.624C835.483 449.242 813.161 449.591 813.146 461.974C813.137 469.249 819.116 474.999 825.165 478.175L824.266 478.515C817.178 481.162 805.962 483.201 799.987 487.698C795.089 470.678 788.733 476.318 805.004 463.492C805.801 462.863 807.172 458.979 807.63 457.723C804.68 453.235 798.568 450.275 797.786 446.739C799.866 442.786 799.59 439.701 799.663 435.282C811.764 427.987 823.902 420.754 836.077 413.583L837.045 412.365C841.774 411.682 851.741 410.121 856.211 410.166C860.905 408.898 863.766 408.181 867.887 405.598Z"/><path fill="#2A5127" d="M867.887 405.598C876.805 408.981 879.447 410.848 886.308 417.659C890.176 417.169 894.047 416.713 897.923 416.292C903.383 418.935 906.925 421.055 907.792 427.437C904.492 428.432 900.941 430.457 898.044 432.325C896.125 436.887 895.304 437.583 891.015 440.231C891.105 441.861 891.187 441.853 890.715 443.383C886.62 447.777 872.026 451.995 865.828 453.825C857.732 451.308 853.287 449.19 845.96 444.886L848.299 433.363C844.664 433.826 839.313 434.328 835.715 433.993C829.907 433.452 833.986 424.282 834.787 421.451C834.936 419.387 835.775 415.974 836.077 413.583L837.045 412.365C841.774 411.682 851.741 410.121 856.211 410.166C860.905 408.898 863.766 408.181 867.887 405.598Z"/><path fill="#496331" d="M867.887 405.598C876.805 408.981 879.447 410.848 886.308 417.659C890.176 417.169 894.047 416.713 897.923 416.292C903.383 418.935 906.925 421.055 907.792 427.437C904.492 428.432 900.941 430.457 898.044 432.325C896.125 436.887 895.304 437.583 891.015 440.231C885.912 432.141 864.522 418.681 855.767 411.476L856.211 410.166C860.905 408.898 863.766 408.181 867.887 405.598Z"/><path fill="#617F33" d="M837.045 412.365C841.774 411.682 851.741 410.121 856.211 410.166L855.767 411.476C854.109 415.366 850.842 418.011 847.765 420.926C843.437 421.032 839.11 421.207 834.787 421.451C834.936 419.387 835.775 415.974 836.077 413.583L837.045 412.365Z"/><path fill="#82A445" d="M833.824 394.01C838.893 391.26 847.389 386.728 853.317 388.186C857.247 389.152 858.055 391.533 859.997 394.858C870.105 397.259 883.146 399.661 890.731 407.23C893.29 409.784 895.032 413.386 897.923 416.292C894.047 416.713 890.176 417.169 886.308 417.659C879.447 410.848 876.805 408.981 867.887 405.598C863.766 408.181 860.905 408.898 856.211 410.166C851.741 410.121 841.774 411.682 837.045 412.365C832.461 411.416 824.73 410.63 819.912 410C816.808 407.942 811.275 407.289 807.198 405.737C800.267 406.864 793.344 408.034 786.428 409.247L776.636 430.054C770.913 440.494 767.177 447.504 763.855 459.094C762.335 464.4 759.711 477.927 758.099 482.201C751.915 470.881 753.057 466.082 754.647 453.688C756.277 440.985 760.139 429.487 768.695 419.735C772.516 415.379 773.008 414.3 774.302 408.804C780.724 404.091 781.956 404.277 790.013 404.23C795.585 400.494 813.734 394.067 820.724 391.232C826.467 388.903 829.112 391.383 833.824 394.01Z"/><path fill="#617F33" d="M807.198 405.737C810.716 404.598 821.867 400.814 824.993 400.489C833.297 399.624 845.234 398.691 853.639 398.377C856.204 399.712 865.537 404.81 867.887 405.598C863.766 408.181 860.905 408.898 856.211 410.166C851.741 410.121 841.774 411.682 837.045 412.365C832.461 411.416 824.73 410.63 819.912 410C816.808 407.942 811.275 407.289 807.198 405.737Z"/><path fill="#82A445" d="M819.912 410C824.73 410.63 832.461 411.416 837.045 412.365L836.077 413.583C823.902 420.754 811.764 427.987 799.663 435.282C799.59 439.701 799.866 442.786 797.786 446.739L796.304 446.601L795.717 446.559C784.882 445.853 787.16 438.966 789.345 430.927C796.265 423.614 796.842 426.236 799.883 415.174C806.457 413.06 813.19 411.589 819.912 410Z"/><path fill="#617F33" d="M758.099 482.201C759.711 477.927 762.335 464.4 763.855 459.094C767.177 447.504 770.913 440.494 776.636 430.054C779.641 433.462 781.836 437.031 784.551 440.59C779.694 454.122 772.931 479.302 758.45 485.016L758.099 482.201Z"/><path fill="#3F4339" d="M789.953 516.174C787.336 512.355 773.435 493.526 775.375 490.579C778.058 489.961 782.418 490.451 785.345 490.636C788.315 494.781 790.195 499.582 792.988 503.951C796.222 503.507 798.856 503.546 802.111 503.524C802.787 499.261 802.959 497.596 802.966 493.293C806.271 494.031 816.639 494.785 817.397 495.164C812.936 499.378 808.567 504.333 804.452 508.163C802.072 509.923 799.9 511.25 801.144 514.528C796.686 512.562 794.108 514.048 789.953 516.174Z"/><path fill="#324128" d="M796.304 446.601L797.786 446.739C798.568 450.275 804.68 453.235 807.63 457.723C807.172 458.979 805.801 462.863 805.004 463.492C788.733 476.318 795.089 470.678 799.987 487.698C799.999 489.166 800.232 489.467 800.76 490.831C795.281 487.98 791.332 483.22 787.468 478.546C790.134 467.536 793.208 457.471 796.304 446.601Z"/><path fill="#3F4339" d="M719.756 503.98L723.865 508.742C725.361 509.183 728.185 509.998 729.413 510.787C735.378 514.617 741.047 524.948 744.679 531.266C746.015 535.276 748.75 544.801 748.579 548.904C748.686 571.082 748.26 586.013 731.172 603.117C699.037 635.281 640.937 631.407 603.765 610.512C594.931 605.558 591.06 606.914 586.688 595.673C586.901 593.907 587.362 590.932 587.445 589.256C587.432 576.251 594.725 574.171 600.484 564.307L600.965 563.47C605.007 558.915 609.313 556.503 615.146 554.866C623.978 557.394 626.356 563.488 632.552 565.415C638.9 567.39 652.582 574.575 657.939 575.753C663.561 574.745 670.127 573.952 675.848 573.114C682.019 567.48 683.019 562.622 685.341 554.994C684.563 551.721 683.921 549.225 681.957 546.478L682.699 543.522C684.919 540.216 689.621 534.569 692.254 531.231C696.124 525.623 698.985 519.172 701.877 513.004C704.951 511.667 708.215 510.611 711.388 509.514C712.03 513.02 712.732 516.059 713.581 519.525C714.895 517.368 715.164 516.873 715.94 514.48C716.763 511.563 718.64 506.954 719.756 503.98Z"/><path fill="#617F33" d="M711.388 509.514C712.03 513.02 712.732 516.059 713.581 519.525C713.485 522.624 712.674 537.352 713.524 539.216C715.542 538.531 715.057 538.343 716.671 538.898C719.358 542.659 719.648 550.772 720.767 555.768C716.779 560.72 714.521 563.563 711.703 569.205C706.156 570.314 700.775 570.46 695.206 571.261C691.584 576.044 687.38 577.179 682.973 580.594C683.938 584.021 677.861 595.923 677.391 599.93C673.027 602.801 669.459 605.1 664.853 607.649C663.447 608.398 662.931 608.583 661.676 609.581L658.365 612.001C657.178 608.979 656.223 606.59 654.79 603.666C652.698 599.304 653.452 595.788 653.98 591.063C651.241 589.287 648.722 588.276 648.918 584.772C650.007 582.772 651.22 582.145 653.058 580.807C657.134 578.95 655.761 577.456 657.939 575.753C663.561 574.745 670.127 573.952 675.848 573.114C682.019 567.48 683.019 562.622 685.341 554.994C684.563 551.721 683.921 549.225 681.957 546.478L682.699 543.522C684.919 540.216 689.621 534.569 692.254 531.231C696.124 525.623 698.985 519.172 701.877 513.004C704.951 511.667 708.215 510.611 711.388 509.514Z"/><path fill="#82A445" d="M713.524 539.216C715.542 538.531 715.057 538.343 716.671 538.898C719.358 542.659 719.648 550.772 720.767 555.768C716.779 560.72 714.521 563.563 711.703 569.205C706.156 570.314 700.775 570.46 695.206 571.261C696.389 565.307 699.054 560.795 701.968 555.533C701.309 553.62 700.514 551.61 699.801 549.702C703.294 546.606 711.289 542.614 713.524 539.216Z"/><path fill="#3F4339" d="M682.973 580.594C683.938 584.021 677.861 595.923 677.391 599.93C673.027 602.801 669.459 605.1 664.853 607.649C663.447 608.398 662.931 608.583 661.676 609.581L658.365 612.001C657.178 608.979 656.223 606.59 654.79 603.666L656.612 602.05C665.372 595.186 673.497 586.664 682.973 580.594Z"/><path fill="#496331" d="M654.79 603.666L656.612 602.05C657.742 603.799 660.482 608.233 661.676 609.581L658.365 612.001C657.178 608.979 656.223 606.59 654.79 603.666Z"/><path fill="#616161" d="M600.965 563.47C605.007 558.915 609.313 556.503 615.146 554.866C623.978 557.394 626.356 563.488 632.552 565.415C638.9 567.39 652.582 574.575 657.939 575.753C655.761 577.456 657.134 578.95 653.058 580.807C645.902 578.567 634.203 579.819 624.811 576.279C619.914 580.297 614.581 586.433 610.237 591.222C607.495 589.836 604.489 588.502 601.683 587.202C596.444 587.648 592.32 588.713 587.445 589.256C587.432 576.251 594.725 574.171 600.484 564.307L600.965 563.47Z"/><path fill="#888787" d="M600.965 563.47C603.071 564.743 606.64 566.602 609.053 567.06C613.781 569.72 620.437 573.251 624.811 576.279C619.914 580.297 614.581 586.433 610.237 591.222C607.495 589.836 604.489 588.502 601.683 587.202C596.444 587.648 592.32 588.713 587.445 589.256C587.432 576.251 594.725 574.171 600.484 564.307L600.965 563.47Z"/><path fill="#ACABAB" d="M609.053 567.06C613.781 569.72 620.437 573.251 624.811 576.279C619.914 580.297 614.581 586.433 610.237 591.222C607.495 589.836 604.489 588.502 601.683 587.202C603.832 582.873 606.972 572.391 609.053 567.06Z"/><path fill="#737272" d="M624.811 576.279C634.203 579.819 645.902 578.567 653.058 580.807C651.22 582.145 650.007 582.772 648.918 584.772C648.722 588.276 651.241 589.287 653.98 591.063C653.452 595.788 652.698 599.304 654.79 603.666C656.223 606.59 657.178 608.979 658.365 612.001C649.293 610.799 624.253 600.735 615.135 596.095C614.123 595.58 611.197 592.296 610.237 591.222C614.581 586.433 619.914 580.297 624.811 576.279Z"/><path fill="#496331" d="M695.206 571.261C700.775 570.46 706.156 570.314 711.703 569.205C711.011 574.491 709.071 606.743 707.354 608.34C707.208 608.191 706.561 607.562 706.48 607.41C704.291 604.593 702.893 603.639 699.848 601.821C693.134 604.716 687.328 606.679 680.426 608.977C679.386 605.994 678.395 602.931 677.391 599.93C677.861 595.923 683.938 584.021 682.973 580.594C687.38 577.179 691.584 576.044 695.206 571.261Z"/><path fill="#4D4D4D" d="M719.756 503.98L723.865 508.742C725.361 509.183 728.185 509.998 729.413 510.787C735.378 514.617 741.047 524.948 744.679 531.266L740.158 537.052C736.073 529.513 725.777 519.063 719.725 511.98L715.94 514.48C716.763 511.563 718.64 506.954 719.756 503.98Z"/><path fill="#393939" d="M664.853 607.649C669.459 605.1 673.027 602.801 677.391 599.93C678.395 602.931 679.386 605.994 680.426 608.977C687.328 606.679 693.134 604.716 699.848 601.821C702.893 603.639 704.291 604.593 706.48 607.41C691.448 615.509 678.957 609.911 664.853 607.649Z"/><path fill="#393939" d="M744.679 531.266C746.015 535.276 748.75 544.801 748.579 548.904L744.377 552.827C742.668 547.351 741.479 542.604 740.158 537.052L744.679 531.266Z"/><path fill="#617F33" d="M727.724 561.549C733.52 563.188 728.927 587.141 728.271 592.509C726.103 590.954 723.944 589.387 721.794 587.808C719.308 586.017 716.864 584.167 714.464 582.262C714.764 577.063 714.417 573.347 713.771 568.221C718.801 566.043 722.87 564.031 727.724 561.549Z"/><path fill="#4D4D4D" d="M121.969 424.888C128.582 423.154 146.639 415.608 154.024 412.739C156.113 418.696 161.597 421.949 166.514 425.582C169.537 428.296 179.859 441.405 180.688 444.983C187.966 450.014 198.857 465.243 205.6 472.142C207.317 473.119 208.452 474.056 210.371 473.958C215.832 481.524 220.686 492.933 224.835 501.259C226.431 504.463 229.116 510.693 231.249 513.381C230.497 516.547 228.687 520.433 227.377 523.506L226.705 525.832C228.246 530.846 233.972 556.039 236.001 558.084L236.284 557.111C237.069 559.608 237.01 561.661 237.926 564.205C235.048 565.672 232.178 568.467 229.557 570.457C222.849 575.546 214.622 583.472 207.676 587.893C206.72 586.428 205.475 583.795 204.386 582.016C201.12 576.68 196.736 570.76 194.274 565.063C190.829 560.029 191.555 557.396 189.511 553.227C186.503 547.092 177.501 542.803 178.734 535.048C179.322 531.345 171.815 522.322 168.873 519.384L168.553 518.52C169.78 515.274 177.822 508.838 180.774 506.571C182.368 503.994 183.649 501.31 185.004 498.601C184.49 493.81 184.334 488.988 184.538 484.173C183.429 485.957 180.396 491.336 179.419 492.55C168.956 487.862 164.391 486.471 152.904 488.628L152.477 489.118C148.644 489.023 146.411 487.773 143.052 486.144L143.027 486.999C142.964 489.551 143.089 491.795 143.217 494.283C143.579 501.321 145.406 510.069 140.091 515.739C137.983 517.989 135.81 517.007 133.487 518.129C127.651 510.303 122.27 502.795 116.218 495.059C114.303 498.769 109.501 509.325 106.452 511.541C106.888 499.82 104.383 497.782 107.058 484.211C105.895 473.444 101.686 461.416 102.836 451.239C103.884 447.157 105.417 442.563 106.935 438.655C109.053 433.202 107.724 427.404 114.059 425.253C116.342 424.922 117.922 424.485 120.139 425.055L121.969 424.888Z"/><path fill="#496331" d="M114.059 425.253C116.342 424.922 117.922 424.485 120.139 425.055L121.969 424.888C123.473 426.964 124.115 428.308 126.46 429.329C130.489 432.017 134.272 434.261 138.43 436.712C140.846 439.916 143.599 441.675 145.417 444.865C147.509 447.797 149.049 450.245 151.801 452.582C153.699 452.54 154.684 452.427 156.104 453.96C155.508 463.104 154 479.456 152.904 488.628L152.477 489.118C148.644 489.023 146.411 487.773 143.052 486.144L143.027 486.999C142.964 489.551 143.089 491.795 143.217 494.283C143.579 501.321 145.406 510.069 140.091 515.739C137.983 517.989 135.81 517.007 133.487 518.129C127.651 510.303 122.27 502.795 116.218 495.059C114.303 498.769 109.501 509.325 106.452 511.541C106.888 499.82 104.383 497.782 107.058 484.211C105.895 473.444 101.686 461.416 102.836 451.239C103.884 447.157 105.417 442.563 106.935 438.655C109.053 433.202 107.724 427.404 114.059 425.253Z"/><path fill="#82A445" d="M114.059 425.253C116.342 424.922 117.922 424.485 120.139 425.055C121.349 430.366 124.016 437.399 125.864 442.689L119.968 444.325C112.187 453.283 114.086 464.837 112.836 475.866C112.673 477.307 112.724 484.879 110.582 485.238C109.863 485.359 107.882 484.533 107.058 484.211C105.895 473.444 101.686 461.416 102.836 451.239C103.884 447.157 105.417 442.563 106.935 438.655C109.053 433.202 107.724 427.404 114.059 425.253Z"/><path fill="#82A445" d="M151.801 452.582C153.699 452.54 154.684 452.427 156.104 453.96C155.508 463.104 154 479.456 152.904 488.628L152.477 489.118C148.644 489.023 146.411 487.773 143.052 486.144C141.946 485.291 138.72 483.679 137.337 482.938C138.413 477.554 138.467 470.851 138.513 465.32C141.273 462.382 144.301 459.4 147.139 456.511C148.798 455.253 150.241 453.952 151.801 452.582Z"/><path fill="#3F4339" d="M145.417 444.865C147.509 447.797 149.049 450.245 151.801 452.582C150.241 453.952 148.798 455.253 147.139 456.511C145.113 452.751 145.467 449.138 145.417 444.865Z"/><defs><linearGradient id="gradient_2" gradientUnits="userSpaceOnUse" x1="186.85333" y1="551.42548" x2="227.47217" y2="527.49927"><stop offset="0" stop-color="#575656"/><stop offset="1" stop-color="#7C7C7B"/></linearGradient></defs><path fill="url(#gradient_2)" d="M183.771 529.251C188.468 521.493 198.189 496.665 202.859 490.911L203.494 490.916L204.516 492.598C211.629 503.9 219.438 514.674 226.705 525.832C228.246 530.846 233.972 556.039 236.001 558.084L236.284 557.111C237.069 559.608 237.01 561.661 237.926 564.205C235.048 565.672 232.178 568.467 229.557 570.457C222.849 575.546 214.622 583.472 207.676 587.893C206.72 586.428 205.475 583.795 204.386 582.016C201.12 576.68 196.736 570.76 194.274 565.063C190.829 560.029 191.555 557.396 189.511 553.227C186.503 547.092 177.501 542.803 178.734 535.048C179.322 531.345 171.815 522.322 168.873 519.384L168.553 518.52C169.78 515.274 177.822 508.838 180.774 506.571C181.086 510.123 182.868 526.449 183.771 529.251Z"/><path fill="#3F4339" d="M168.873 519.384L168.553 518.52C169.78 515.274 177.822 508.838 180.774 506.571C181.086 510.123 182.868 526.449 183.771 529.251C185.196 531.38 193.327 533.928 196.603 535.815C197.8 544.799 198.295 550.481 201.606 558.982C198.911 557.965 195.42 556.43 192.654 556.111L192.027 556.697C192.599 559.643 194.477 562.978 194.274 565.063C190.829 560.029 191.555 557.396 189.511 553.227C186.503 547.092 177.501 542.803 178.734 535.048C179.322 531.345 171.815 522.322 168.873 519.384Z"/><path fill="#616161" d="M183.771 529.251C188.468 521.493 198.189 496.665 202.859 490.911L203.494 490.916L204.516 492.598C203.008 500.714 201.126 548.276 202.737 556.31C203.436 556.753 203.681 556.915 204.428 557.285L203.994 557.735L202.694 557.737C202.068 558.864 202.482 558.646 201.606 558.982C198.295 550.481 197.8 544.799 196.603 535.815C193.327 533.928 185.196 531.38 183.771 529.251Z"/><path fill="#737272" d="M121.969 424.888C128.582 423.154 146.639 415.608 154.024 412.739C156.113 418.696 161.597 421.949 166.514 425.582C169.537 428.296 179.859 441.405 180.688 444.983C182.502 452.966 185.267 461.575 187.759 469.358C181.233 465.586 175.6 460.16 169.529 456.576C160.191 451.064 147.926 441.005 138.43 436.712C134.272 434.261 130.489 432.017 126.46 429.329C124.115 428.308 123.473 426.964 121.969 424.888Z"/><path fill="#888787" d="M121.969 424.888C128.582 423.154 146.639 415.608 154.024 412.739C156.113 418.696 161.597 421.949 166.514 425.582C155.719 426.965 135.46 427.435 126.46 429.329C124.115 428.308 123.473 426.964 121.969 424.888Z"/><path fill="#2A5127" d="M156.104 453.96C159.711 457.57 163.076 467.369 165.643 472.447C171.057 475.405 180.996 477.721 184.504 482.721C184.515 483.205 184.527 483.689 184.538 484.173C183.429 485.957 180.396 491.336 179.419 492.55C168.956 487.862 164.391 486.471 152.904 488.628C154 479.456 155.508 463.104 156.104 453.96Z"/><path fill="#393939" d="M205.6 472.142C207.317 473.119 208.452 474.056 210.371 473.958C215.832 481.524 220.686 492.933 224.835 501.259C226.431 504.463 229.116 510.693 231.249 513.381C230.497 516.547 228.687 520.433 227.377 523.506C226.423 521.899 223.812 515.492 223.215 513.501C219.896 502.44 207.371 482.821 205.6 472.142Z"/><path fill="#82A445" d="M415.661 411.54C418.083 416.568 422.656 416.294 427.389 417.927L427.603 419.031L427.97 419.511C432.849 420.037 436.584 419.92 441.345 421.172C443.459 423.754 445.951 425.531 447.922 428.197C446.61 431.909 443.856 437.655 445.661 441.297C449.43 439.539 458.526 437.003 462.978 435.628C465.105 444.617 466.149 448.158 470.934 455.974C466.021 456 454.639 457.327 450.744 461.106C449.063 462.738 447.967 464.911 445.632 465.774C437.815 468.664 429.356 479.745 426.335 487.351C424.513 491.938 424.285 497.878 422.12 503.002C420.734 506.445 419.282 509.428 420.729 513.081C423.999 516.049 421.771 523.894 423.647 528.319C425.785 533.359 429.113 537.786 432.785 541.75C428.396 545.235 419.217 547.324 413.571 550.195C412.843 551.774 412.115 555.088 412.003 556.776C410.933 558.449 410.553 559.144 409.189 560.547C403.846 557.254 398.433 554.074 392.955 551.011C389.303 556.702 385.761 562.463 382.33 568.29C381.024 570.523 377.435 577.121 376.141 578.873C375.803 577.959 374.153 575.864 373.747 574.935C370.306 567.063 371.088 566.748 364.314 561.764C363.873 553.596 359.938 547.468 358.23 539.714C357.525 536.515 359.113 499.707 359.795 495.857C360.463 492.091 361.393 489.2 363.508 485.947C362.832 482.975 361.787 479.341 362.522 476.335C363.365 472.889 366.746 470.945 368.409 467.94C373.409 458.906 381.925 435.603 389.757 430.801C399.541 421.55 404.087 418.052 415.661 411.54Z"/><path fill="#193420" d="M415.661 411.54C418.083 416.568 422.656 416.294 427.389 417.927L427.603 419.031L427.97 419.511C432.849 420.037 436.584 419.92 441.345 421.172C443.459 423.754 445.951 425.531 447.922 428.197C446.61 431.909 443.856 437.655 445.661 441.297C449.43 439.539 458.526 437.003 462.978 435.628C465.105 444.617 466.149 448.158 470.934 455.974C466.021 456 454.639 457.327 450.744 461.106C449.063 462.738 447.967 464.911 445.632 465.774C437.815 468.664 429.356 479.745 426.335 487.351C424.513 491.938 424.285 497.878 422.12 503.002C419.22 498.792 418.757 493.319 413.491 489.455C408.773 485.993 403.29 486.609 397.807 487.431L395.415 487.62C393.247 488.929 391.711 492.682 389.337 491.405C386.315 484.127 400.505 475.997 403.698 469.844C405.69 466.006 406.477 463.17 407.577 459.049C404.405 458.956 401.62 458.785 398.456 458.526C400.112 456.111 404.051 453.173 406.469 451.216C405.483 449.749 404.85 449.771 403.782 447.589C400.1 446.464 393.501 434.809 389.757 430.801C399.541 421.55 404.087 418.052 415.661 411.54Z"/><path fill="#715E35" d="M415.661 411.54C418.083 416.568 422.656 416.294 427.389 417.927L427.603 419.031L427.97 419.511C427.988 423.019 428.471 425.268 429.289 428.673C430.929 433.044 432.625 438.75 434.574 442.802C429.559 446.217 421.576 452.223 416.675 454.961C415.844 451.551 416.114 450.496 416.408 447.011C412.716 448.187 409.729 449.016 406.469 451.216C405.483 449.749 404.85 449.771 403.782 447.589C400.1 446.464 393.501 434.809 389.757 430.801C399.541 421.55 404.087 418.052 415.661 411.54Z"/><path fill="#957242" d="M415.661 411.54C418.083 416.568 422.656 416.294 427.389 417.927L427.603 419.031C425.68 420.218 421.881 422.52 420.34 423.678C414.695 427.916 406.529 440.82 404.037 447.173L403.782 447.589C400.1 446.464 393.501 434.809 389.757 430.801C399.541 421.55 404.087 418.052 415.661 411.54Z"/><path fill="#3F4339" d="M429.289 428.673C430.929 433.044 432.625 438.75 434.574 442.802C429.559 446.217 421.576 452.223 416.675 454.961C415.844 451.551 416.114 450.496 416.408 447.011C416.901 445.373 416.635 441.218 416.593 439.305C419.155 436.08 425.783 431.328 429.289 428.673Z"/><path fill="#617F33" d="M404.037 447.173C407.009 446.434 413.775 441.305 416.593 439.305C416.635 441.218 416.901 445.373 416.408 447.011C412.716 448.187 409.729 449.016 406.469 451.216C405.483 449.749 404.85 449.771 403.782 447.589L404.037 447.173Z"/><path fill="#2A5127" d="M406.469 451.216C409.729 449.016 412.716 448.187 416.408 447.011C416.114 450.496 415.844 451.551 416.675 454.961C414.986 457.296 421.796 471.965 422.971 475.471C415.534 494.62 403.447 475.286 395.415 487.62C393.247 488.929 391.711 492.682 389.337 491.405C386.315 484.127 400.505 475.997 403.698 469.844C405.69 466.006 406.477 463.17 407.577 459.049C404.405 458.956 401.62 458.785 398.456 458.526C400.112 456.111 404.051 453.173 406.469 451.216Z"/><path fill="#496331" d="M427.97 419.511C432.849 420.037 436.584 419.92 441.345 421.172C443.459 423.754 445.951 425.531 447.922 428.197C446.61 431.909 443.856 437.655 445.661 441.297C448.113 444.256 454.357 450.197 449.714 453.54C445.567 454.269 442.781 452.34 438.795 450.536C437.607 448.293 435.898 444.859 434.574 442.802C432.625 438.75 430.929 433.044 429.289 428.673C428.471 425.268 427.988 423.019 427.97 419.511Z"/><path fill="#496331" d="M363.508 485.947C368.132 499.275 365.182 506.441 361.708 519.853C366.015 522.114 372.606 526.15 376.687 527.906C380.054 527.193 383.935 526.48 387.16 525.424C388.604 527.288 388.684 527.569 390.725 528.574C392.622 528.593 393.207 528.538 394.196 526.672C396.544 525.753 403.731 524.31 406.42 523.76C407.021 523.135 410.322 518.652 411.014 517.743C412.852 518.208 415.41 518.002 417.367 517.957C418.934 516.023 419.585 515.265 420.729 513.081C423.999 516.049 421.771 523.894 423.647 528.319C425.785 533.359 429.113 537.786 432.785 541.75C428.396 545.235 419.217 547.324 413.571 550.195C412.843 551.774 412.115 555.088 412.003 556.776C410.933 558.449 410.553 559.144 409.189 560.547C403.846 557.254 398.433 554.074 392.955 551.011C389.303 556.702 385.761 562.463 382.33 568.29C381.024 570.523 377.435 577.121 376.141 578.873C375.803 577.959 374.153 575.864 373.747 574.935C370.306 567.063 371.088 566.748 364.314 561.764C363.873 553.596 359.938 547.468 358.23 539.714C357.525 536.515 359.113 499.707 359.795 495.857C360.463 492.091 361.393 489.2 363.508 485.947Z"/><path fill="#193420" d="M420.729 513.081C423.999 516.049 421.771 523.894 423.647 528.319C425.785 533.359 429.113 537.786 432.785 541.75C428.396 545.235 419.217 547.324 413.571 550.195C412.326 546.192 411.034 537.516 410.264 533.129C402.448 536.574 394.602 539.952 386.727 543.262C397.094 534.392 399.432 537.499 406.42 523.76C407.021 523.135 410.322 518.652 411.014 517.743C412.852 518.208 415.41 518.002 417.367 517.957C418.934 516.023 419.585 515.265 420.729 513.081Z"/><path fill="#617F33" d="M389.757 430.801C393.501 434.809 400.1 446.464 403.782 447.589C404.85 449.771 405.483 449.749 406.469 451.216C404.051 453.173 400.112 456.111 398.456 458.526C395.525 459.748 394.943 460.394 392.588 462.512C391.381 460.161 389.859 456.959 388.57 454.735C387.067 456.928 385.812 458.745 384.035 460.739C379.053 466.33 372.196 470.155 373.882 478.733C374.408 481.406 376.392 486.245 377.609 488.527C383.753 500.043 382.308 503.934 380.803 516.148C382.658 519.19 385.799 522.976 387.16 525.424C383.935 526.48 380.054 527.193 376.687 527.906C372.606 526.15 366.015 522.114 361.708 519.853C365.182 506.441 368.132 499.275 363.508 485.947C362.832 482.975 361.787 479.341 362.522 476.335C363.365 472.889 366.746 470.945 368.409 467.94C373.409 458.906 381.925 435.603 389.757 430.801Z"/><path fill="#2A5127" d="M397.807 487.431C403.29 486.609 408.773 485.993 413.491 489.455C418.757 493.319 419.22 498.792 422.12 503.002C420.734 506.445 419.282 509.428 420.729 513.081C419.585 515.265 418.934 516.023 417.367 517.957C415.41 518.002 412.852 518.208 411.014 517.743C410.322 518.652 407.021 523.135 406.42 523.76C403.731 524.31 396.544 525.753 394.196 526.672C393.481 519.792 394.297 514.771 395.268 508.022C394.671 506.565 393.994 503.146 393.612 501.472C396.756 497.054 400.05 492.566 402.945 487.995C401.777 487.35 399.285 487.47 397.807 487.431Z"/><path fill="#496331" d="M395.268 508.022C397.727 516.146 406.045 514.256 411.014 517.743C410.322 518.652 407.021 523.135 406.42 523.76C403.731 524.31 396.544 525.753 394.196 526.672C393.481 519.792 394.297 514.771 395.268 508.022Z"/><defs><linearGradient id="gradient_3" gradientUnits="userSpaceOnUse" x1="508.10608" y1="491.81638" x2="536.86761" y2="434.17847"><stop offset="0" stop-color="#4E5A31"/><stop offset="1" stop-color="#437032"/></linearGradient></defs><path fill="url(#gradient_3)" d="M462.087 392.176C463.716 392.129 463.982 392.6 465.47 394.006C465.899 394.417 466.323 394.832 466.742 395.253C473.72 394.962 485.772 397.078 493.774 397.361C495.494 398.53 497.797 400.434 499.732 400.585C503.082 399.114 504.385 399.968 507.705 401.471C516.508 405.456 529.79 412.358 538.955 414.615L544.278 413.162C550.841 419.721 558.045 429.586 560.89 438.499C562.411 441.44 563.645 443.652 564.678 446.808C573.662 458.423 575.581 470.043 579.91 483.839C577.13 484.127 575.078 483.344 572.789 481.786C568.867 486.952 570.654 486.205 565.308 491.486C562.767 494.37 559.294 498.476 556.017 500.46L555.455 500.482C552.134 502.584 546.372 502.926 542.436 502.97C539.51 501.706 525.824 500.422 521.589 499.94C518.338 495.654 518.065 489.896 515.144 485.409C513.794 483.335 509.725 482.828 509.456 481.794C508.722 478.983 509.806 474.396 508.137 471.671C503.676 464.386 494.745 463.73 487.832 461.805L484.129 457.603C481.037 457.449 477.915 457.611 474.819 457.711L472.479 456.899L470.934 455.974C466.149 448.158 465.105 444.617 462.978 435.628C458.526 437.003 449.43 439.539 445.661 441.297C443.856 437.655 446.61 431.909 447.922 428.197C445.951 425.531 443.459 423.754 441.345 421.172C436.584 419.92 432.849 420.037 427.97 419.511L427.603 419.031L427.389 417.927C422.656 416.294 418.083 416.568 415.661 411.54C418.582 408.55 419.477 404.114 423.309 400.403C434.157 389.898 451.343 395.334 461.341 392.399L462.087 392.176Z"/><defs><linearGradient id="gradient_4" gradientUnits="userSpaceOnUse" x1="488.15735" y1="387.745" x2="513.1405" y2="453.2894"><stop offset="0" stop-color="#4E5931"/><stop offset="1" stop-color="#3F7834"/></linearGradient></defs><path fill="url(#gradient_4)" d="M462.087 392.176C463.716 392.129 463.982 392.6 465.47 394.006C465.899 394.417 466.323 394.832 466.742 395.253C473.72 394.962 485.772 397.078 493.774 397.361C495.494 398.53 497.797 400.434 499.732 400.585C503.082 399.114 504.385 399.968 507.705 401.471C516.508 405.456 529.79 412.358 538.955 414.615L544.278 413.162C550.841 419.721 558.045 429.586 560.89 438.499C562.411 441.44 563.645 443.652 564.678 446.808C557.421 447.246 552.39 438.783 544.114 438.059C540.179 434.455 538.428 433.424 533.497 431.564C530.51 430.064 516.496 429.658 512.534 429.467L501.179 429.444C499.902 431.02 496.913 434.514 496.198 436.222C491.913 438.438 488.664 439.573 484.163 441.214C480.876 445.154 476.276 452.856 474.819 457.711L472.479 456.899L470.934 455.974C466.149 448.158 465.105 444.617 462.978 435.628C458.526 437.003 449.43 439.539 445.661 441.297C443.856 437.655 446.61 431.909 447.922 428.197C445.951 425.531 443.459 423.754 441.345 421.172C436.584 419.92 432.849 420.037 427.97 419.511L427.603 419.031L427.389 417.927C422.656 416.294 418.083 416.568 415.661 411.54C418.582 408.55 419.477 404.114 423.309 400.403C434.157 389.898 451.343 395.334 461.341 392.399L462.087 392.176Z"/><path fill="#2A5127" d="M489.677 423.744C493.787 423.05 496.344 422.619 500.25 421.375C505.336 419.755 512.196 416.378 517.325 415.973C517.536 416.673 517.73 417.377 517.908 418.085C523.595 422.634 536.512 422.711 543.8 423.131C549.594 427.422 555.703 436.323 560.89 438.499C562.411 441.44 563.645 443.652 564.678 446.808C557.421 447.246 552.39 438.783 544.114 438.059C540.179 434.455 538.428 433.424 533.497 431.564C530.51 430.064 516.496 429.658 512.534 429.467L501.179 429.444C499.902 431.02 496.913 434.514 496.198 436.222C491.913 438.438 488.664 439.573 484.163 441.214C480.876 445.154 476.276 452.856 474.819 457.711L472.479 456.899C472.944 455.697 473.84 451.505 474.241 449.955C475.623 444.615 476.873 439.938 478.77 434.745C482.515 433.917 486.249 433.036 489.969 432.103C489.938 429.389 489.78 426.474 489.677 423.744Z"/><path fill="#82A445" d="M462.087 392.176C463.716 392.129 463.982 392.6 465.47 394.006C465.899 394.417 466.323 394.832 466.742 395.253C460.717 399.021 459.605 404.633 454.683 409.803C451.207 410.268 445.674 410.276 443.756 413.305C443.004 416.167 442.3 418.374 441.345 421.172C436.584 419.92 432.849 420.037 427.97 419.511L427.603 419.031L427.389 417.927C422.656 416.294 418.083 416.568 415.661 411.54C418.582 408.55 419.477 404.114 423.309 400.403C434.157 389.898 451.343 395.334 461.341 392.399L462.087 392.176Z"/><path fill="#617F33" d="M462.087 392.176C463.716 392.129 463.982 392.6 465.47 394.006C465.899 394.417 466.323 394.832 466.742 395.253C460.717 399.021 459.605 404.633 454.683 409.803C451.207 410.268 445.674 410.276 443.756 413.305C443.004 416.167 442.3 418.374 441.345 421.172C436.584 419.92 432.849 420.037 427.97 419.511L427.603 419.031L427.389 417.927C430.846 411.831 441.092 406.431 447.645 404.839C451.158 403.986 464.074 396.42 462.087 392.176Z"/><path fill="#324128" d="M443.756 413.305C450.701 415.904 461.167 418.757 466.87 421.101C461.191 425.732 462.564 428.248 463.152 435.075L462.978 435.628C458.526 437.003 449.43 439.539 445.661 441.297C443.856 437.655 446.61 431.909 447.922 428.197C445.951 425.531 443.459 423.754 441.345 421.172C442.3 418.374 443.004 416.167 443.756 413.305Z"/><path fill="#617F33" d="M478.51 409.547C484.827 408.427 492.068 406.853 498.411 406.898C493.197 412.384 487.868 417.397 482.219 422.431C481.709 422.885 481.021 424.87 480.756 425.584C477.276 428.888 467.802 432.373 463.152 435.075C462.564 428.248 461.191 425.732 466.87 421.101C471.372 417.357 475.315 414.527 478.51 409.547Z"/><path fill="#193420" d="M533.497 431.564C538.428 433.424 540.179 434.455 544.114 438.059C552.39 438.783 557.421 447.246 564.678 446.808C573.662 458.423 575.581 470.043 579.91 483.839C577.13 484.127 575.078 483.344 572.789 481.786C568.867 486.952 570.654 486.205 565.308 491.486C562.767 494.37 559.294 498.476 556.017 500.46L555.455 500.482C553.537 494.216 552.188 488.774 548.804 483.126C546.797 484.658 543.088 488.694 541.169 490.678C532.4 479.486 535.151 477.191 520.152 470.572L522.95 467.839C523.896 465.124 525.943 460.854 527.169 458.102L527.802 457.496C532.368 455.387 536.745 449.081 540.433 445.076C539.518 444.638 538.642 444.125 537.754 443.631L536.314 440.826L533.497 431.564Z"/><path fill="#2A5127" d="M536.622 455.16C542.814 460.62 543.718 453.932 548.655 460.539C551.087 461.637 554.176 460.368 556.828 459.625C557.6 465.986 557.809 468.976 560.113 474.847C557.681 476.324 549.591 480.804 548.779 482.944L548.804 483.126C546.797 484.658 543.088 488.694 541.169 490.678C532.4 479.486 535.151 477.191 520.152 470.572L522.95 467.839C525.985 466.002 533.695 458.088 536.622 455.16Z"/><path fill="#2A5127" d="M533.497 431.564C538.428 433.424 540.179 434.455 544.114 438.059C545.177 440.259 545.812 441.186 546.014 443.606C545.37 445.326 545.922 444.72 544.381 445.556C542.44 445.516 542.297 445.53 540.433 445.076C539.518 444.638 538.642 444.125 537.754 443.631L536.314 440.826L533.497 431.564Z"/><path fill="#617F33" d="M501.179 429.444L512.534 429.467C511.84 437.091 512.627 440.066 514.938 447.339C507.735 450.395 499.189 454.229 491.869 456.545C493.094 450.691 494.668 441.753 496.198 436.222C496.913 434.514 499.902 431.02 501.179 429.444Z"/><path fill="#82A445" d="M536.314 440.826L537.754 443.631C538.642 444.125 539.518 444.638 540.433 445.076C536.745 449.081 532.368 455.387 527.802 457.496L527.169 458.102C518.698 460.293 516.945 465.007 509.297 466.697C508.676 466.834 508.677 466.634 508.195 466.121C508.102 461.742 514.491 456.396 516.646 453.329C517.266 452.446 518.494 445.145 518.761 443.646C522.816 443.31 531.871 441.542 536.314 440.826Z"/><path fill="#2A5127" d="M537.754 443.631C538.642 444.125 539.518 444.638 540.433 445.076C536.745 449.081 532.368 455.387 527.802 457.496C530.003 452.022 531.595 445.224 537.754 443.631Z"/><path fill="#2A5127" d="M603.492 415.37C605.502 413.039 611.105 409.681 613.819 407.324C617.221 404.495 620.288 401.303 623.701 398.482C625.009 397.4 625.312 397.403 626.82 396.958C632.29 395.345 638.022 395.412 643.606 394.339C648.942 393.314 654.234 391.826 659.575 390.809C675.61 388.811 673.97 389.953 685.128 397.773C699.661 394.402 699.184 402.015 708.686 406.138C722.662 412.202 731.259 409.715 739.518 425.95C739.676 434.013 737.99 434.81 731.639 439.563C729.005 446.899 723.537 457.198 717.204 462.218C711.332 466.872 702.35 461.99 697.052 457.785C686.581 451.043 670.806 447.506 658.466 450.371C654.056 451.395 649.328 452.636 646.599 456.627C643.701 460.863 645.428 464.522 646.779 469.027C643.246 468.479 626.486 458.111 623.527 455.449L621.773 456.377C618.925 458.585 617.335 459.898 614.99 462.794C615.38 466.056 616.861 486.852 611.551 486.625C604.128 486.307 597.228 478.767 589.088 476.93C581.667 462.794 592.354 448.432 589.93 436.025C590.81 432.652 600.961 417.922 603.492 415.37Z"/><defs><linearGradient id="gradient_5" gradientUnits="userSpaceOnUse" x1="630.32648" y1="436.37271" x2="717.22089" y2="460.57077"><stop offset="0" stop-color="#2D2C2C"/><stop offset="1" stop-color="#6D6D6D"/></linearGradient></defs><path fill="url(#gradient_5)" d="M685.128 397.773C699.661 394.402 699.184 402.015 708.686 406.138C722.662 412.202 731.259 409.715 739.518 425.95C739.676 434.013 737.99 434.81 731.639 439.563C729.005 446.899 723.537 457.198 717.204 462.218C711.332 466.872 702.35 461.99 697.052 457.785C686.581 451.043 670.806 447.506 658.466 450.371C654.056 451.395 649.328 452.636 646.599 456.627C643.701 460.863 645.428 464.522 646.779 469.027C643.246 468.479 626.486 458.111 623.527 455.449C627.827 452.059 632.114 450.888 637.048 448.806C643.503 446.083 642.92 442.859 641.881 437.204C646.725 434.151 652.65 431.961 657.989 429.796C659.748 426.901 661.799 421.405 663.722 417.734C667.635 419.701 669.867 420.322 674.065 421.411C679.947 417.864 678.014 407.526 681.035 400.098L681.318 400.016C682.925 398.787 683.269 398.638 685.128 397.773Z"/><path fill="#324128" d="M685.128 397.773C699.661 394.402 699.184 402.015 708.686 406.138C722.662 412.202 731.259 409.715 739.518 425.95L730.699 430.059C726.302 432.073 722.351 434.953 718.155 436.809C705.413 428.852 688.419 425.209 674.065 421.411C679.947 417.864 678.014 407.526 681.035 400.098L681.318 400.016C682.925 398.787 683.269 398.638 685.128 397.773Z"/><path fill="#617F33" d="M685.128 397.773C699.661 394.402 699.184 402.015 708.686 406.138C722.662 412.202 731.259 409.715 739.518 425.95L730.699 430.059C726.36 421.853 716.37 416.806 708.456 413.099C705.521 414.582 700.19 416.558 696.993 417.856C692.002 411.903 686.446 406.053 681.318 400.016C682.925 398.787 683.269 398.638 685.128 397.773Z"/><path fill="#393939" d="M739.518 425.95C739.676 434.013 737.99 434.81 731.639 439.563C729.005 446.899 723.537 457.198 717.204 462.218C711.332 466.872 702.35 461.99 697.052 457.785C699.517 457.549 704.403 458.441 707.048 458.829C717.434 451.488 727.325 451.82 718.155 436.809C722.351 434.953 726.302 432.073 730.699 430.059L739.518 425.95Z"/><path fill="#617F33" d="M603.492 415.37C605.502 413.039 611.105 409.681 613.819 407.324C617.221 404.495 620.288 401.303 623.701 398.482C625.009 397.4 625.312 397.403 626.82 396.958C632.29 395.345 638.022 395.412 643.606 394.339C648.942 393.314 654.234 391.826 659.575 390.809C675.61 388.811 673.97 389.953 685.128 397.773C683.269 398.638 682.925 398.787 681.318 400.016L681.035 400.098C677.432 398.305 677.269 397.229 675.565 393.518C672.357 399.416 672.161 401.361 670.877 408.127C670.399 410.37 670.834 410.227 669.452 411.167C665.805 410.55 665.433 407.583 660.81 407.442C658.675 414.822 656.924 421.104 649.581 425.2C648.112 426.004 646.603 426.734 645.06 427.387L644.931 418.502C627.064 421.335 628.375 427.704 615.775 435.794L613.575 437.642C604.687 436.573 599.878 437.998 589.93 436.025C590.81 432.652 600.961 417.922 603.492 415.37Z"/><path fill="#82A445" d="M603.492 415.37C605.502 413.039 611.105 409.681 613.819 407.324C617.221 404.495 620.288 401.303 623.701 398.482C625.009 397.4 625.312 397.403 626.82 396.958C632.29 395.345 638.022 395.412 643.606 394.339C648.942 393.314 654.234 391.826 659.575 390.809C675.61 388.811 673.97 389.953 685.128 397.773C683.269 398.638 682.925 398.787 681.318 400.016L681.035 400.098C677.432 398.305 677.269 397.229 675.565 393.518C672.357 399.416 672.161 401.361 670.877 408.127C667.519 405.136 665.131 401.354 662.035 398.178C658.568 402.746 656.837 404.395 651.371 406.576L646.491 397.042C634.463 404.698 625.48 411.863 611.085 414.379C608.772 414.783 605.737 415.772 603.492 415.37Z"/><path fill="#82A445" d="M615.775 435.794C619.844 419.485 646.536 410.153 660.81 407.442C658.675 414.822 656.924 421.104 649.581 425.2C648.112 426.004 646.603 426.734 645.06 427.387L644.931 418.502C627.064 421.335 628.375 427.704 615.775 435.794Z"/><path fill="#496331" d="M615.775 435.794C628.375 427.704 627.064 421.335 644.931 418.502L645.06 427.387C643.203 428.181 638.175 430.281 636.757 431.388C629.181 437.3 621.197 448.735 615.538 456.542C615.391 452.928 615.247 440.054 613.575 437.642L615.775 435.794Z"/><path fill="#496331" d="M432.785 541.75C441.687 543.223 443.338 546.607 446.897 554.252C453.06 558.125 453.157 559.079 457.207 565.251C461.453 566.144 476.236 568.735 480.686 566.982C481.637 566.607 484.065 561.407 485.248 560.54C490.981 556.341 492.317 558.198 497.175 552.256C499.386 553.147 501.08 553.718 503.083 555.036L503.009 555.537L506.906 560.218C506.275 561.433 504.998 564.09 504.326 565.134C503.326 572.629 490.673 596.657 487.285 605.455C487.153 605.799 487.832 606.26 487.907 606.317C484.052 607.587 480.652 608.652 476.736 609.7C478.003 613.017 480.429 613.396 482.495 615.772C479.541 618.213 474.128 625.028 474.39 628.994C471.001 630.452 461.563 629.634 454.565 631.324C446.543 627.971 447.471 625.999 437.628 626.452C433.367 623.213 430.521 620.576 425.724 618.098C422.628 616.934 420.618 615.293 416.754 614.117C415.659 614.562 414.134 615.242 413.052 615.594C407.988 611.634 405.247 608.422 401.007 603.625C397.965 603.139 394.854 603.382 391.755 603.474L391.255 603.124C382.915 597.207 377.853 588.883 376.141 578.873C377.435 577.121 381.024 570.523 382.33 568.29C385.761 562.463 389.303 556.702 392.955 551.011C398.433 554.074 403.846 557.254 409.189 560.547C410.553 559.144 410.933 558.449 412.003 556.776C412.115 555.088 412.843 551.774 413.571 550.195C419.217 547.324 428.396 545.235 432.785 541.75Z"/><path fill="#617F33" d="M392.955 551.011C398.433 554.074 403.846 557.254 409.189 560.547C408.506 564.101 412.193 570.876 413.336 575.004L413.118 575.595C410.465 582.593 402.984 583.058 405.057 589.575C405.512 591.003 410.813 597.03 412.33 597.414C412.78 598.223 414.214 600.754 414.151 601.457C413.67 606.842 412.955 610.097 413.052 615.594C407.988 611.634 405.247 608.422 401.007 603.625C397.965 603.139 394.854 603.382 391.755 603.474L391.255 603.124C382.915 597.207 377.853 588.883 376.141 578.873C377.435 577.121 381.024 570.523 382.33 568.29C385.761 562.463 389.303 556.702 392.955 551.011Z"/><path fill="#2A5127" d="M440.408 602.613L473.152 604.663C476.302 604.885 476.326 607.038 476.736 609.7C478.003 613.017 480.429 613.396 482.495 615.772C479.541 618.213 474.128 625.028 474.39 628.994C471.001 630.452 461.563 629.634 454.565 631.324C446.543 627.971 447.471 625.999 437.628 626.452C433.367 623.213 430.521 620.576 425.724 618.098C428.827 610.616 435.177 608.494 440.408 602.613Z"/><path fill="#737272" d="M504.326 565.134C503.326 572.629 490.673 596.657 487.285 605.455C487.153 605.799 487.832 606.26 487.907 606.317C484.052 607.587 480.652 608.652 476.736 609.7C476.326 607.038 476.302 604.885 473.152 604.663L440.408 602.613C441.422 601.92 445.972 602.125 447.611 602.093C452.969 596.941 457.264 591.031 463.418 585.286C466.525 585.498 469.644 585.701 472.756 585.799C485.769 586.207 495.866 573.675 504.326 565.134Z"/><defs><linearGradient id="gradient_6" gradientUnits="userSpaceOnUse" x1="468.69037" y1="567.07086" x2="475.69254" y2="585.34235"><stop offset="0" stop-color="#2F4720"/><stop offset="1" stop-color="#3B383D"/></linearGradient></defs><path fill="url(#gradient_6)" d="M503.009 555.537L506.906 560.218C506.275 561.433 504.998 564.09 504.326 565.134C495.866 573.675 485.769 586.207 472.756 585.799C469.644 585.701 466.525 585.498 463.418 585.286L460.827 584.772C455.655 583.732 444.971 583.104 440.607 586.369C439.161 587.451 437.176 588.909 435.708 590.049L437.165 584.33C441.059 581.118 444.867 577.329 448.533 573.825C453.578 575.129 455.821 578.342 460.313 577.429C462.088 576.398 462.405 575.206 463.402 573.278C481.304 571.783 492.569 572.179 503.009 555.537Z"/><path fill="#393939" d="M435.708 590.049C437.176 588.909 439.161 587.451 440.607 586.369C444.971 583.104 455.655 583.732 460.827 584.772L463.418 585.286C457.264 591.031 452.969 596.941 447.611 602.093C445.972 602.125 441.422 601.92 440.408 602.613C435.177 608.494 428.827 610.616 425.724 618.098C422.628 616.934 420.618 615.293 416.754 614.117L416.423 604.767C421.716 599.063 433.174 594.75 435.708 590.049Z"/><path fill="#82A445" d="M412.003 556.776C418.922 555.946 421.637 555.542 428.077 553.104C430.983 555.315 432.043 556.218 434.557 558.852C426.741 560.213 425.632 561.958 423.158 569.359C424.896 572.788 426.283 574.63 428.735 577.629C427.495 579.253 427.237 579.695 425.669 580.941C418.077 583.204 414.683 590.45 412.33 597.414C410.813 597.03 405.512 591.003 405.057 589.575C402.984 583.058 410.465 582.593 413.118 575.595L413.336 575.004C412.193 570.876 408.506 564.101 409.189 560.547C410.553 559.144 410.933 558.449 412.003 556.776Z"/><path fill="#617F33" d="M428.735 577.629C432.915 579.505 434.916 580.829 438.363 583.973C432.621 583.448 431.037 583.241 425.669 580.941C427.237 579.695 427.495 579.253 428.735 577.629Z"/><path fill="#393939" d="M567.927 517.474C568.921 515.262 569.303 514.907 571.71 514.61C579.542 513.643 574.699 506.661 584.228 508.52C583.111 522.812 580.063 533.726 576.666 547.582C571.72 567.755 561.204 586.046 545.444 599.749C530.589 612.603 511.104 620.728 492.034 625.025C487.543 626.038 477.975 627.119 474.39 628.994C474.128 625.028 479.541 618.213 482.495 615.772C480.429 613.396 478.003 613.017 476.736 609.7C480.652 608.652 484.052 607.587 487.907 606.317C487.832 606.26 487.153 605.799 487.285 605.455C490.673 596.657 503.326 572.629 504.326 565.134C504.998 564.09 506.275 561.433 506.906 560.218L503.009 555.537L503.083 555.036C511.812 547.853 515.276 539.196 519.385 529.045C520.832 531.049 526.965 539.674 527.478 541.324C528.624 544.826 528.664 546.377 528.969 550.04C531.382 549.256 534.597 548.08 537.029 547.668C541.019 544.548 541.426 536.722 546.552 532.357C547.466 530.268 546.994 521.384 546.753 518.86C548.265 518.949 556.959 518.002 559.762 517.889C561.835 519.286 562.453 519.9 564.812 520.48C567.119 519.944 567.03 519.864 567.927 517.474Z"/><path fill="#949490" d="M519.385 529.045C520.832 531.049 526.965 539.674 527.478 541.324C528.624 544.826 528.664 546.377 528.969 550.04C531.382 549.256 534.597 548.08 537.029 547.668C541.019 544.548 541.426 536.722 546.552 532.357C546.239 539.891 546.037 547.43 545.947 554.971C541.377 561.285 536.883 567.654 532.465 574.075C529.337 578.686 525.899 584.166 522.517 588.513C518.742 593.368 512.733 597.482 508.868 602.316C507.83 602.79 506.975 603.25 505.877 603.545C499.614 604.12 494.086 605.254 487.907 606.317C487.832 606.26 487.153 605.799 487.285 605.455C490.673 596.657 503.326 572.629 504.326 565.134C504.998 564.09 506.275 561.433 506.906 560.218L503.009 555.537L503.083 555.036C511.812 547.853 515.276 539.196 519.385 529.045Z"/><path fill="#888787" d="M519.385 529.045C520.832 531.049 526.965 539.674 527.478 541.324C524.456 544.096 523.273 550.454 521.167 554.509C516.986 556.429 510.149 558.516 506.906 560.218L503.009 555.537L503.083 555.036C511.812 547.853 515.276 539.196 519.385 529.045Z"/><path fill="#4D4D4D" d="M559.762 517.889C561.835 519.286 562.453 519.9 564.812 520.48C567.119 519.944 567.03 519.864 567.927 517.474L567.754 518.393C566.375 525.957 566.471 543.267 562.657 550.422C554.115 566.451 540.556 583.058 528.352 596.575C526.298 598.781 511.337 602.063 508.868 602.316C512.733 597.482 518.742 593.368 522.517 588.513C525.899 584.166 529.337 578.686 532.465 574.075C536.883 567.654 541.377 561.285 545.947 554.971C546.037 547.43 546.239 539.891 546.552 532.357C547.466 530.268 546.994 521.384 546.753 518.86C548.265 518.949 556.959 518.002 559.762 517.889Z"/><path fill="#4D4D4D" d="M487.907 606.317C494.086 605.254 499.614 604.12 505.877 603.545C498.334 610.605 489.36 611.239 482.495 615.772C480.429 613.396 478.003 613.017 476.736 609.7C480.652 608.652 484.052 607.587 487.907 606.317Z"/><defs><linearGradient id="gradient_7" gradientUnits="userSpaceOnUse" x1="594.56226" y1="472.24777" x2="688.47461" y2="533.26538"><stop offset="0" stop-color="#393939"/><stop offset="1" stop-color="#585758"/></linearGradient></defs><path fill="url(#gradient_7)" d="M623.527 455.449C626.486 458.111 643.246 468.479 646.779 469.027C655.968 479.474 673.799 483.889 686.699 487.3C690.428 488.286 694.683 491.525 698.535 492.695C706.803 495.01 713.412 497.721 719.756 503.98C718.64 506.954 716.763 511.563 715.94 514.48C715.164 516.873 714.895 517.368 713.581 519.525C712.732 516.059 712.03 513.02 711.388 509.514C708.215 510.611 704.951 511.667 701.877 513.004C698.985 519.172 696.124 525.623 692.254 531.231C689.621 534.569 684.919 540.216 682.699 543.522L681.957 546.478C675.892 542.989 661.045 535.523 654.591 533.609C647.532 531.516 640.943 532.637 632.703 528.204C617.994 520.293 602.21 511.119 595.362 495.028C592.71 488.797 591.24 483.2 589.088 476.93C597.228 478.767 604.128 486.307 611.551 486.625C616.861 486.852 615.38 466.056 614.99 462.794C617.335 459.898 618.925 458.585 621.773 456.377L623.527 455.449Z"/><defs><linearGradient id="gradient_8" gradientUnits="userSpaceOnUse" x1="705.72778" y1="471.91507" x2="629.48773" y2="501.07623"><stop offset="0" stop-color="#52623E"/><stop offset="1" stop-color="#5A5460"/></linearGradient></defs><path fill="url(#gradient_8)" d="M623.527 455.449C626.486 458.111 643.246 468.479 646.779 469.027C655.968 479.474 673.799 483.889 686.699 487.3C690.428 488.286 694.683 491.525 698.535 492.695C706.803 495.01 713.412 497.721 719.756 503.98C718.64 506.954 716.763 511.563 715.94 514.48C715.164 516.873 714.895 517.368 713.581 519.525C712.732 516.059 712.03 513.02 711.388 509.514C708.215 510.611 704.951 511.667 701.877 513.004C698.985 519.172 696.124 525.623 692.254 531.231C687.162 527.118 675.765 518.813 670.147 516.692C666.612 512.567 654.678 506.424 651.789 502.614C643.79 497.558 635.572 491.882 627.658 486.62C625.276 484.8 622.818 483.18 620.338 481.501L621.322 480.871C622.665 477.91 622.076 460.398 621.773 456.377L623.527 455.449Z"/><path fill="#888787" d="M651.789 502.614C659.285 500.612 665.651 499.317 673.296 497.881C683.664 504.008 690.98 507.717 701.877 513.004C698.985 519.172 696.124 525.623 692.254 531.231C687.162 527.118 675.765 518.813 670.147 516.692C666.612 512.567 654.678 506.424 651.789 502.614Z"/><path fill="#737272" d="M620.338 481.501C622.818 483.18 625.276 484.8 627.658 486.62C635.572 491.882 643.79 497.558 651.789 502.614C654.678 506.424 666.612 512.567 670.147 516.692C675.765 518.813 687.162 527.118 692.254 531.231C689.621 534.569 684.919 540.216 682.699 543.522C678.194 533.651 665.918 530.242 655.931 530.574C646.796 521.044 640.569 521.753 630.557 513.912C628.32 500.645 629.145 500.213 614.899 500.533C616.323 494.317 617.183 486.749 620.338 481.501Z"/><path fill="#ACABAB" d="M641.185 506.234C638.997 503.059 627.062 489.065 627.658 486.62C635.572 491.882 643.79 497.558 651.789 502.614C654.678 506.424 666.612 512.567 670.147 516.692C664.774 515.911 660.285 515.347 654.857 514.876L651.925 504.935C647.824 505.209 645.247 505.538 641.185 506.234Z"/><path fill="#737272" d="M825.165 478.175C833.826 480.037 833.341 481.949 840.683 485.581C844.208 487.325 853.413 488.502 857.509 489.701C860.134 490.47 863.749 493.479 866.319 493.989C876.119 495.932 879.773 492.554 887.785 500.483C883.289 504.17 880.469 507.138 879.216 513.063C878.347 517.171 876.241 526.586 877.511 530.448C875.44 531.812 873.378 533.19 871.325 534.582C869.933 528.498 868.666 522.386 867.523 516.25C863.024 521.423 861.409 527.063 858.372 533.102C856.773 536.849 855.079 541.075 853.268 544.682L852.669 547.484L851.692 550.597C843.22 539.27 835.809 540.497 823.408 535.785C817.705 533.617 811.82 530.743 806.116 528.389C805.924 526.604 802.603 519.164 801.755 514.786L801.144 514.528C799.9 511.25 802.072 509.923 804.452 508.163C808.567 504.333 812.936 499.378 817.397 495.164C816.639 494.785 806.271 494.031 802.966 493.293L801.164 491.029L800.76 490.831C800.232 489.467 799.999 489.166 799.987 487.698C805.962 483.201 817.178 481.162 824.266 478.515L825.165 478.175Z"/><path fill="#3F4339" d="M825.165 478.175C833.826 480.037 833.341 481.949 840.683 485.581C844.208 487.325 853.413 488.502 857.509 489.701C860.134 490.47 863.749 493.479 866.319 493.989C876.119 495.932 879.773 492.554 887.785 500.483C883.289 504.17 880.469 507.138 879.216 513.063C878.347 517.171 876.241 526.586 877.511 530.448C875.44 531.812 873.378 533.19 871.325 534.582C869.933 528.498 868.666 522.386 867.523 516.25C867.553 513.472 867.858 512.72 868.588 510.058L863.417 506.466C859.385 502.87 850.556 494.768 846.197 492.125C837.116 493.012 825.147 488.673 819.824 492.582L819.629 492.838C819.012 493.549 818.133 494.718 817.397 495.164C816.639 494.785 806.271 494.031 802.966 493.293L801.164 491.029L800.76 490.831C800.232 489.467 799.999 489.166 799.987 487.698C805.962 483.201 817.178 481.162 824.266 478.515L825.165 478.175Z"/><path fill="#616161" d="M801.164 491.029C803.411 492.717 816.504 493.08 819.629 492.838C819.012 493.549 818.133 494.718 817.397 495.164C816.639 494.785 806.271 494.031 802.966 493.293L801.164 491.029Z"/><path fill="#616161" d="M801.144 514.528C799.9 511.25 802.072 509.923 804.452 508.163C817.203 513.573 829.863 519.197 842.426 525.031C846.175 526.798 855.144 530.963 858.372 533.102C856.773 536.849 855.079 541.075 853.268 544.682L852.669 547.484L851.692 550.597C843.22 539.27 835.809 540.497 823.408 535.785C817.705 533.617 811.82 530.743 806.116 528.389C805.924 526.604 802.603 519.164 801.755 514.786L801.144 514.528Z"/><path fill="#393939" d="M801.755 514.786C805.692 516.814 815.599 525.762 819.959 528.969C824.35 529.023 830.546 528.91 834.79 529.264C838.967 532.423 850.011 541.041 853.268 544.682L852.669 547.484L851.692 550.597C843.22 539.27 835.809 540.497 823.408 535.785C817.705 533.617 811.82 530.743 806.116 528.389C805.924 526.604 802.603 519.164 801.755 514.786Z"/><path fill="#949490" d="M819.824 492.582C825.147 488.673 837.116 493.012 846.197 492.125C850.556 494.768 859.385 502.87 863.417 506.466C859.161 506.718 848.419 502.662 844.036 501.088C839.26 501.817 834.529 502.814 829.865 504.074C826.154 501.189 820.25 497.564 819.824 492.582Z"/><defs><linearGradient id="gradient_9" gradientUnits="userSpaceOnUse" x1="144.27007" y1="581.36462" x2="112.85019" y2="607.18512"><stop offset="0" stop-color="#5E6637"/><stop offset="1" stop-color="#6C593C"/></linearGradient></defs><path fill="url(#gradient_9)" d="M134.674 552.723L138.472 554.717C140.74 560.508 142.863 569.647 144.825 574.021C146.994 571.096 151.386 567.901 154.361 565.571L154.672 566.083C158.213 572.045 160.769 580.811 166.306 584.554C164.014 615.884 176.706 616.438 140.436 625.003C135.607 626.563 131.311 627.334 126.194 626.474C119.643 625.343 113.776 621.741 109.802 616.412C109.077 611.688 108.952 609.133 108.846 604.32C108.11 602.875 106.995 601.349 106.068 599.979C106.069 595.142 106.27 590.099 106.392 585.247L106.064 578.695L109.786 575.035C112.137 576.314 113.527 577.831 115.472 579.66L117.052 580.334L117.926 579.817L118.495 577.517C123.496 574.037 128.418 564.203 130.672 563.073L134.674 552.723Z"/><path fill="#193420" d="M154.361 565.571L154.672 566.083C158.213 572.045 160.769 580.811 166.306 584.554C164.014 615.884 176.706 616.438 140.436 625.003C138.922 622.956 132.6 619.488 130.051 618.907C129.781 614.204 129.59 609.496 129.478 604.787C133.213 606.697 137.535 609.402 141.116 611.606C142.409 612.203 143.272 612.777 144.671 612.686C145.632 609.456 141.382 596.255 140.248 592.39L139.549 591.031C141.499 585.627 143.252 579.542 144.825 574.021C146.994 571.096 151.386 567.901 154.361 565.571Z"/><path fill="#324128" d="M140.248 592.39C145.848 595.303 151.478 598.157 157.138 600.952C156.757 604.514 156.406 608.793 155.838 612.27C150.057 614.089 149.809 615.015 145.942 619.897C144.247 615.737 143.948 615.269 141.116 611.606C142.409 612.203 143.272 612.777 144.671 612.686C145.632 609.456 141.382 596.255 140.248 592.39Z"/><path fill="#3F4339" d="M134.674 552.723L138.472 554.717C140.74 560.508 142.863 569.647 144.825 574.021C143.252 579.542 141.499 585.627 139.549 591.031C136.458 585.026 133.33 570.949 130.672 563.073L134.674 552.723Z"/><path fill="#3F4339" d="M108.846 604.32C116.073 608.989 121.754 615.707 130.051 618.907C132.6 619.488 138.922 622.956 140.436 625.003C135.607 626.563 131.311 627.334 126.194 626.474C119.643 625.343 113.776 621.741 109.802 616.412C109.077 611.688 108.952 609.133 108.846 604.32Z"/><path fill="#496331" d="M109.786 575.035C112.137 576.314 113.527 577.831 115.472 579.66C112.058 582.194 110.18 583.223 106.392 585.247L106.064 578.695L109.786 575.035Z"/><path fill="#324128" d="M184.538 484.173C184.334 488.988 184.49 493.81 185.004 498.601C183.649 501.31 182.368 503.994 180.774 506.571C177.822 508.838 169.78 515.274 168.553 518.52L168.873 519.384C168.078 524.583 167.033 529.972 167.291 535.208C167.488 539.206 168.123 543.449 168.334 547.364C168.43 549.129 166.495 552.77 166.476 555.332C166.404 565.143 166.909 574.74 166.306 584.554C160.769 580.811 158.213 572.045 154.672 566.083L154.361 565.571C151.386 567.901 146.994 571.096 144.825 574.021C142.863 569.647 140.74 560.508 138.472 554.717L134.674 552.723C137.109 546.855 140.373 541.173 142.346 535.169C143.1 532.876 142.669 532.274 141.513 530.234C139.875 526.749 135.833 521.466 133.487 518.129C135.81 517.007 137.983 517.989 140.091 515.739C145.406 510.069 143.579 501.321 143.217 494.283C143.089 491.795 142.964 489.551 143.027 486.999L143.052 486.144C146.411 487.773 148.644 489.023 152.477 489.118L152.904 488.628C164.391 486.471 168.956 487.862 179.419 492.55C180.396 491.336 183.429 485.957 184.538 484.173Z"/><path fill="#496331" d="M152.904 488.628C164.391 486.471 168.956 487.862 179.419 492.55C174.853 496.499 164.479 500.173 158.704 502.399C157.937 506.102 157.445 510.659 156.731 514.595C153.044 511.902 150.113 509.67 146.739 506.63C147.421 497.051 150.01 496.678 152.477 489.118L152.904 488.628Z"/><path fill="#616161" d="M138.472 554.717C144.501 556.343 150.478 557.706 156.432 559.282C155.833 561.194 155.115 563.782 154.361 565.571C151.386 567.901 146.994 571.096 144.825 574.021C142.863 569.647 140.74 560.508 138.472 554.717Z"/><path fill="#715E35" d="M565.308 491.486C570.654 486.205 568.867 486.952 572.789 481.786C575.078 483.344 577.13 484.127 579.91 483.839C580.523 485.89 580.901 487.315 581.886 489.184C583.665 492.563 586.118 505.683 584.228 508.52C574.699 506.661 579.542 513.643 571.71 514.61C569.303 514.907 568.921 515.262 567.927 517.474C567.03 519.864 567.119 519.944 564.812 520.48C562.453 519.9 561.835 519.286 559.762 517.889C556.959 518.002 548.265 518.949 546.753 518.86C546.994 521.384 547.466 530.268 546.552 532.357C541.426 536.722 541.019 544.548 537.029 547.668C534.597 548.08 531.382 549.256 528.969 550.04C528.664 546.377 528.624 544.826 527.478 541.324C526.965 539.674 520.832 531.049 519.385 529.045C521.319 523.568 519.079 515.975 519.422 510.443C519.618 507.295 521.333 504.005 521.589 499.94C525.824 500.422 539.51 501.706 542.436 502.97C546.372 502.926 552.134 502.584 555.455 500.482L556.017 500.46C559.294 498.476 562.767 494.37 565.308 491.486Z"/><path fill="#324128" d="M565.308 491.486C570.654 486.205 568.867 486.952 572.789 481.786C575.078 483.344 577.13 484.127 579.91 483.839C580.523 485.89 580.901 487.315 581.886 489.184C583.665 492.563 586.118 505.683 584.228 508.52C574.699 506.661 579.542 513.643 571.71 514.61C569.303 514.907 568.921 515.262 567.927 517.474C567.03 519.864 567.119 519.944 564.812 520.48C562.453 519.9 561.835 519.286 559.762 517.889C559.088 513.691 561.462 511.551 563.972 508.619C563.676 503.399 567.779 495.198 565.308 491.486Z"/><path fill="#3F4339" d="M565.308 491.486C567.779 495.198 563.676 503.399 563.972 508.619C561.462 511.551 559.088 513.691 559.762 517.889C556.959 518.002 548.265 518.949 546.753 518.86C542.203 520.273 540.686 522.434 537.413 525.869C537.633 521.376 537.411 514.621 537.386 509.963C539.118 507.668 540.802 505.336 542.436 502.97C546.372 502.926 552.134 502.584 555.455 500.482L556.017 500.46C559.294 498.476 562.767 494.37 565.308 491.486Z"/><path fill="#616161" d="M537.413 525.869C540.686 522.434 542.203 520.273 546.753 518.86C546.994 521.384 547.466 530.268 546.552 532.357C541.426 536.722 541.019 544.548 537.029 547.668C536.972 543.839 536.569 528.863 537.413 525.869Z"/><path fill="#82A445" d="M116.218 495.059C122.27 502.795 127.651 510.303 133.487 518.129C135.833 521.466 139.875 526.749 141.513 530.234C142.669 532.274 143.1 532.876 142.346 535.169C140.373 541.173 137.109 546.855 134.674 552.723L130.672 563.073C128.418 564.203 123.496 574.037 118.495 577.517L117.926 579.817L117.052 580.334L115.472 579.66C113.527 577.831 112.137 576.314 109.786 575.035C105.752 568.132 110.852 555.005 110.421 547.012C110.204 542.992 109.022 539.711 107.634 535.978C104.381 527.23 104.951 520.619 106.452 511.541C109.501 509.325 114.303 498.769 116.218 495.059Z"/><path fill="#496331" d="M141.513 530.234C142.669 532.274 143.1 532.876 142.346 535.169C140.373 541.173 137.109 546.855 134.674 552.723L130.672 563.073C128.418 564.203 123.496 574.037 118.495 577.517C119.274 569.957 119.586 561.43 120.126 553.73C126.81 546.299 134.5 537.005 141.513 530.234Z"/><path fill="#616161" d="M171.528 401.278C173.307 402.303 175.017 406.12 175.917 408.067C186.223 430.367 199.758 451.945 210.371 473.958C208.452 474.056 207.317 473.119 205.6 472.142C198.857 465.243 187.966 450.014 180.688 444.983C179.859 441.405 169.537 428.296 166.514 425.582C161.597 421.949 156.113 418.696 154.024 412.739C155.093 411.088 156.597 407.288 157.437 405.337C161.123 404.408 168.266 402.702 171.528 401.278Z"/><path fill="#ACABAB" d="M114.059 425.253C115.831 417.427 117.696 402.185 126.811 400.157C137.523 397.774 150.096 396.609 161.099 397.113C163.95 397.244 168.954 399.958 171.528 401.278C168.266 402.702 161.123 404.408 157.437 405.337C156.597 407.288 155.093 411.088 154.024 412.739C146.639 415.608 128.582 423.154 121.969 424.888L120.139 425.055C117.922 424.485 116.342 424.922 114.059 425.253Z"/><path fill="#617F33" d="M827.052 574.083C828.962 574.601 835.508 576.508 836.975 576.319C838.655 577.308 842.626 578.733 844.515 579.084C842.434 579.823 835.702 582.031 834.379 583.239L818.402 587.637L817.641 585.978C819.69 582.911 824.213 575.119 827.052 574.083Z"/></svg>